<?xml version="1.0" encoding="UTF-8" standalone="no"?>
<svg
   xmlns:dc="http://purl.org/dc/elements/1.1/"
   xmlns:cc="http://creativecommons.org/ns#"
   xmlns:rdf="http://www.w3.org/1999/02/22-rdf-syntax-ns#"
   xmlns:svg="http://www.w3.org/2000/svg"
   xmlns="http://www.w3.org/2000/svg"
   xmlns:sodipodi="http://sodipodi.sourceforge.net/DTD/sodipodi-0.dtd"
   xmlns:inkscape="http://www.inkscape.org/namespaces/inkscape"
   version="1.1"
   width="1000"
   height="400"
   id="svg4"
   sodipodi:docname="IBM_logo.svg"
   inkscape:version="0.92.1 r15371">
  <metadata
     id="metadata10">
    <rdf:RDF>
      <cc:Work
         rdf:about="">
        <dc:format>image/svg+xml</dc:format>
        <dc:type
           rdf:resource="http://purl.org/dc/dcmitype/StillImage" />
      </cc:Work>
    </rdf:RDF>
  </metadata>
  <defs
     id="defs8" />
  <sodipodi:namedview
     pagecolor="#ffffff"
     bordercolor="#666666"
     borderopacity="1"
     objecttolerance="10"
     gridtolerance="10"
     guidetolerance="10"
     inkscape:pageopacity="0"
     inkscape:pageshadow="2"
     inkscape:window-width="1600"
     inkscape:window-height="847"
     id="namedview6"
     showgrid="false"
     inkscape:zoom="1.4"
     inkscape:cx="197.5269"
     inkscape:cy="177.86953"
     inkscape:window-x="-8"
     inkscape:window-y="-8"
     inkscape:window-maximized="1"
     inkscape:current-layer="svg4" />
  <path
     d="M 0,0 0,27.367 194.64844,27.367 194.64844,0 0,0 z M 222.22657,0 222.22657,27.367 499.60937,27.367 C 499.60936,27.367 471.27625,0 433.75,0 L 222.22657,0 z M 554.02344,0 554.02344,27.367 721.83594,27.367 711.875,0 554.02344,0 z M 842.14844,0 832.1875,27.367 998.47656,27.367 998.47656,0 842.14844,0 z M 0,53.22221 0,80.589202 194.64844,80.589202 194.64844,53.22221 0,53.22221 z M 222.22657,53.260975 222.22657,80.589202 531.79688,80.589202 C 531.79688,80.589214 528.18125,59.526386 521.875,53.260975 L 222.22657,53.260975 z M 554.02344,53.260975 554.02344,80.589202 740.23438,80.589202 731.01562,53.260975 554.02344,53.260975 z M 822.22656,53.260975 813.00781,80.589202 998.47656,80.589202 998.47656,53.260975 822.22656,53.260975 z M 55.937496,106.44442 55.937496,133.85017 140.23437,133.85017 140.23437,106.44442 55.937496,106.44442 z M 278.16407,106.44442 278.16407,133.85017 362.46093,133.85017 362.46093,106.44442 278.16407,106.44442 z M 444.45313,106.44442 444.45313,133.85017 528.75,133.85017 C 528.75001,133.85017 534.10156,119.37715 534.10156,106.44442 L 444.45313,106.44442 z M 609.96094,106.44442 609.96094,133.85017 759.41407,133.85017 749.45313,106.44442 609.96094,106.44442 z M 803.86719,106.44442 793.86719,133.85017 944.0625,133.85017 944.0625,106.44442 803.86719,106.44442 z M 55.937496,159.7054 55.937496,187.07238 140.23437,187.07238 140.23437,159.7054 55.937496,159.7054 z M 278.16407,159.7054 278.16407,187.07238 493.47657,187.07238 C 493.47658,187.07237 511.48781,173.0301 517.22656,159.7054 L 278.16407,159.7054 z M 609.96094,159.7054 609.96094,187.07238 694.25781,187.07238 694.25781,171.83835 699.60937,187.07238 854.02344,187.07238 859.76563,171.83835 859.76563,187.07238 944.0625,187.07238 944.0625,159.7054 785.82031,159.7054 777.42187,182.88593 768.98438,159.7054 609.96094,159.7054 z M 55.937496,212.92761 55.937496,240.29459 140.23437,240.29459 140.23437,212.92761 55.937496,212.92761 z M 278.16407,212.92761 278.16407,240.29459 517.22656,240.29459 C 511.48657,227.01331 493.47657,212.92761 493.47657,212.92761 L 278.16407,212.92761 z M 609.96094,212.92761 609.96094,240.29459 694.25781,240.29459 694.25781,212.92761 609.96094,212.92761 z M 709.57031,212.92761 719.76563,240.29459 835.54688,240.29459 845.23438,212.92761 709.57031,212.92761 z M 859.76563,212.92761 859.76563,240.29459 944.0625,240.29459 944.0625,212.92761 859.76563,212.92761 z M 55.937496,266.14982 55.937496,293.5168 140.23437,293.5168 140.23437,266.14982 55.937496,266.14982 z M 278.16407,266.14982 278.16407,293.5168 362.46093,293.5168 362.46093,266.14982 278.16407,266.14982 z M 444.45313,266.14982 444.45313,293.5168 534.10156,293.5168 C 534.10158,280.60147 528.75,266.14982 528.75,266.14982 L 444.45313,266.14982 z M 609.96094,266.14982 609.96094,293.5168 694.25781,293.5168 694.25781,266.14982 609.96094,266.14982 z M 728.71093,266.14982 738.59375,293.5168 816.21093,293.5168 826.17187,266.14982 728.71093,266.14982 z M 859.76563,266.14982 859.76563,293.5168 944.0625,293.5168 944.0625,266.14982 859.76563,266.14982 z M 1.52343,319.37203 1.52343,346.77778 196.17187,346.77778 196.17187,319.37203 1.52343,319.37203 z M 222.22657,319.37203 222.22657,346.77778 521.875,346.77778 C 528.18125,340.50245 531.79688,319.37203 531.79688,319.37203 L 222.22657,319.37203 z M 555.54687,319.37203 555.54687,346.77778 694.25781,346.77778 694.25781,319.37203 555.54687,319.37203 z M 747.89062,319.37203 758.04687,346.77778 797.53906,346.77778 807.07031,319.37203 747.89062,319.37203 z M 859.76563,319.37203 859.76563,346.77778 1000,346.77778 1000,319.37203 859.76563,319.37203 z M 1.52343,372.633 1.52343,400 196.17187,400 196.17187,372.633 1.52343,372.633 z M 222.22657,372.633 222.22657,399.96124 433.75,399.96124 C 471.27624,399.96122 499.60937,372.633 499.60937,372.633 L 222.22657,372.633 z M 555.54687,372.633 555.54687,400 694.25781,400 694.25781,372.633 555.54687,372.633 z M 767.14844,372.633 776.91407,399.92246 778.59375,399.96124 788.51563,372.633 767.14844,372.633 z M 859.76563,372.633 859.76563,400 1000,400 1000,372.633 859.76563,372.633 z"
     fill="#1f70c1"
     id="path2"
     style="fill:#190000;fill-opacity:1" />
  <path
     style="opacity:1;stroke-width:0.71428573;fill:#190000;fill-opacity:1"
     d="m 813.71359,79.701911 c 0.12702,-0.497339 2.15952,-6.604449 4.51666,-13.571356 l 4.28572,-12.667103 87.67857,-7.3e-5 87.67857,-7.2e-5 v 13.571428 13.571429 h -92.19523 c -74.02127,0 -92.14971,-0.178251 -91.96429,-0.904253 z"
     id="path14"
     inkscape:connector-curvature="0" />
  <path
     style="opacity:1;stroke-width:0.71428573;fill:#190000;fill-opacity:1"
     d="m 796.90409,126.49902 c 1.3974,-3.83036 3.54735,-9.77678 4.77767,-13.21428 l 2.23695,-6.25 h 69.83434 69.83435 v 13.21428 13.21429 h -74.61202 -74.61201 z"
     id="path16"
     inkscape:connector-curvature="0" />
  <path
     style="opacity:1;stroke-width:0.71428573;fill:#190000;fill-opacity:1"
     d="m 833.27387,25.427592 c 0.27336,-0.883928 2.41698,-6.830357 4.76358,-13.214285 l 4.26657,-11.60714333 h 77.78454 77.78455 V 13.820449 27.034735 h -82.54813 -82.54814 z"
     id="path18"
     inkscape:connector-curvature="0" />
  <path
     style="opacity:1;stroke-width:0.71428573;fill:#190000;fill-opacity:1"
     d="m 610.01597,173.4602 v -13.57453 l 79.40291,0.18167 79.4029,0.18168 3.66372,10 c 2.01505,5.5 3.90818,10.63385 4.20695,11.40855 0.76143,1.97436 1.12863,1.23894 5.5871,-11.18999 l 3.79369,-10.5757 h 78.75708 78.75708 v 13.57143 13.57143 H 901.82585 860.0643 l -0.20274,-7.67858 -0.20273,-7.67857 -2.93823,7.5 -2.93822,7.5 h -76.97293 -76.97292 l -2.72525,-7.5 -2.72525,-7.5 -0.0421,7.67857 -0.0422,7.67858 h -42.14285 -42.14286 z"
     id="path20"
     inkscape:connector-curvature="0" />
  <path
     style="opacity:1;stroke-width:0.71428573;fill:#190000;fill-opacity:1"
     d="m 860.01597,226.67759 v -13.21428 h 41.78571 41.78572 v 13.21428 13.21429 h -41.78572 -41.78571 z"
     id="path22"
     inkscape:connector-curvature="0" />
  <path
     style="opacity:1;stroke-width:0.71428573;fill:#190000;fill-opacity:1"
     d="m 860.01597,279.89188 v -13.57143 h 41.78571 41.78572 v 13.57143 13.57143 h -41.78572 -41.78571 z"
     id="path24"
     inkscape:connector-curvature="0" />
  <path
     style="opacity:1;stroke-width:0.71428573;fill:#190000;fill-opacity:1"
     d="m 719.48713,238.64188 c -0.2662,-0.6875 -2.45447,-6.55357 -4.86283,-13.03572 l -4.37883,-11.78571 66.78633,-0.18225 c 36.73248,-0.10024 66.93917,-0.0294 67.12598,0.15739 0.1868,0.1868 -1.71333,6.13354 -4.22251,13.21498 l -4.56216,12.87533 -57.70099,0.003 c -54.29434,0.003 -57.72956,-0.0708 -58.18499,-1.24701 z"
     id="path26"
     inkscape:connector-curvature="0" />
  <path
     style="opacity:1;stroke-width:0.71428573;fill:#190000;fill-opacity:1"
     d="m 734.33886,280.79082 c -2.49804,-6.97656 -4.68772,-13.08644 -4.86595,-13.57751 -0.25722,-0.70868 9.63743,-0.89286 47.96664,-0.89286 26.55989,0 48.2852,0.0804 48.27848,0.17857 -0.006,0.0982 -2.18476,6.125 -4.84008,13.39286 l -4.82787,13.21428 -38.58467,0.18466 -38.58467,0.18465 z"
     id="path28"
     inkscape:connector-curvature="0" />
  <path
     style="opacity:1;stroke-width:0.71428573;fill:#190000;fill-opacity:1"
     d="m 753.64309,334.01004 c -2.5029,-6.78285 -4.69873,-12.73423 -4.87963,-13.2253 -0.25972,-0.70505 5.78249,-0.89286 28.72422,-0.89286 27.34676,0 29.02949,0.0734 28.65071,1.25 -0.22132,0.6875 -2.25375,6.55357 -4.51651,13.03571 l -4.11409,11.78572 -19.65699,0.18959 -19.65699,0.18958 z"
     id="path30"
     inkscape:connector-curvature="0" />
  <path
     style="opacity:1;stroke-width:0.71428573;fill:#190000;fill-opacity:1"
     d="m 860.01597,333.10616 v -13.21428 h 70 70.00003 v 13.21428 13.21429 h -70.00003 -70 z"
     id="path32"
     inkscape:connector-curvature="0" />
  <path
     style="opacity:1;stroke-width:0.71428573;fill:#190000;fill-opacity:1"
     d="m 860.01597,386.32045 v -13.57143 h 70 70.00003 v 13.57143 13.57143 h -70.00003 -70 z"
     id="path34"
     inkscape:connector-curvature="0" />
  <path
     style="opacity:1;stroke-width:0.71428573;fill:#190000;fill-opacity:1"
     d="m 776.1504,396.85616 c -3.29118,-8.86851 -8.27729,-23.0498 -8.27729,-23.54193 0,-0.31087 4.53439,-0.56521 10.07642,-0.56521 7.7504,0 10.00481,0.20611 9.76621,0.89286 -4.30848,12.40056 -9.55015,26.25 -9.93498,26.25 -0.27708,0 -1.01074,-1.36607 -1.63036,-3.03572 z"
     id="path36"
     inkscape:connector-curvature="0" />
  <path
     style="opacity:1;stroke-width:0.71428573;fill:#190000;fill-opacity:1"
     d="m 555.73025,386.32045 v -13.57143 h 69.28572 69.28571 v 13.57143 13.57143 h -69.28571 -69.28572 z"
     id="path38"
     inkscape:connector-curvature="0" />
  <path
     style="opacity:1;stroke-width:0.71428573;fill:#190000;fill-opacity:1"
     d="m 555.73025,333.10616 v -13.21428 h 69.28572 69.28571 v 13.21428 13.21429 h -69.28571 -69.28572 z"
     id="path40"
     inkscape:connector-curvature="0" />
  <path
     style="opacity:1;stroke-width:0.71428573;fill:#190000;fill-opacity:1"
     d="m 610.01597,279.89188 v -13.57143 h 42.14286 42.14285 v 13.57143 13.57143 h -42.14285 -42.14286 z"
     id="path42"
     inkscape:connector-curvature="0" />
  <path
     style="opacity:1;stroke-width:0.71428573;fill:#190000;fill-opacity:1"
     d="m 610.01597,226.67759 v -13.21428 h 42.14286 42.14285 v 13.21428 13.21429 h -42.14285 -42.14286 z"
     id="path44"
     inkscape:connector-curvature="0" />
  <path
     style="opacity:1;stroke-width:0.71428573;fill:#190000;fill-opacity:1"
     d="m 610.01597,120.2455 v -13.2178 l 69.73114,0.18209 69.73113,0.18209 4.55458,12.46348 c 2.50502,6.85492 4.55458,12.72099 4.55458,13.03572 0,0.31472 -33.42857,0.57223 -74.28572,0.57223 h -74.28571 z"
     id="path46"
     inkscape:connector-curvature="0" />
  <path
     style="opacity:1;stroke-width:0.71428573;fill:#190000;fill-opacity:1"
     d="M 554.30168,67.031934 V 53.457705 l 88.33097,0.181372 88.33098,0.181372 4.47131,13.392858 4.47131,13.392857 h -92.80228 -92.80229 z"
     id="path48"
     inkscape:connector-curvature="0" />
  <path
     style="opacity:1;stroke-width:0.71428573;fill:#190000;fill-opacity:1"
     d="M 554.30168,13.820449 V 0.60616367 h 78.76292 78.76291 l 2.23695,6.25000003 c 1.23032,3.4375003 3.38027,9.3839283 4.77767,13.2142853 l 2.54072,6.964286 h -83.54058 -83.54059 z"
     id="path50"
     inkscape:connector-curvature="0" />
  <path
     style="opacity:1;stroke-width:0.71428573;fill:#190000;fill-opacity:1"
     d="M 222.87311,13.820449 V 0.60616367 H 332.4224 c 119.07517,0 114.83851,-0.13242947 127.26862,3.97816783 13.29656,4.3971336 24.15271,10.5255995 38.14741,21.5348305 0.87055,0.684831 -28.29053,0.874977 -136.9296,0.892857 l -138.03572,0.02272 z"
     id="path52"
     inkscape:connector-curvature="0" />
  <path
     style="opacity:1;stroke-width:0.71428573;fill:#190000;fill-opacity:1"
     d="M 222.87311,67.033062 V 53.459961 l 149.82143,0.180244 149.82143,0.180244 2.28352,4.642858 c 2.20426,4.481705 5.22568,13.927691 6.22589,19.464285 l 0.4839,2.678572 H 377.19119 222.87311 Z"
     id="path54"
     inkscape:connector-curvature="0" />
  <path
     style="opacity:1;stroke-width:0.71428573;fill:#190000;fill-opacity:1"
     d="m 445.01597,120.24902 v -13.21428 h 44.28571 44.28572 v 2.77823 c 0,3.61136 -1.83064,13.20328 -3.63447,19.04341 l -1.42293,4.60693 h -41.75702 -41.75701 z"
     id="path56"
     inkscape:connector-curvature="0" />
  <path
     style="opacity:1;stroke-width:0.71428573;fill:#190000;fill-opacity:1"
     d="m 278.5874,173.46331 v -13.57143 h 118.92857 c 65.41071,0 118.92857,0.27159 118.92857,0.60354 0,2.01 -7.04806,10.93383 -14.33211,18.14646 l -8.47595,8.39286 H 386.11193 278.5874 Z"
     id="path58"
     inkscape:connector-curvature="0" />
  <path
     style="opacity:1;stroke-width:0.71428573;fill:#190000;fill-opacity:1"
     d="M 278.5874,226.67759 V 213.46331 H 386.43395 494.2805 l 7.75048,7.67857 c 6.79487,6.73182 12.86017,14.30364 14.1498,17.66436 0.37171,0.96865 -12.40727,1.08564 -118.58839,1.08564 H 278.5874 Z"
     id="path60"
     inkscape:connector-curvature="0" />
  <path
     style="opacity:1;stroke-width:0.71428573;fill:#190000;fill-opacity:1"
     d="M 445.01597,279.89188 V 266.32045 H 486.77298 528.53 l 1.479,4.78847 c 1.74541,5.65098 3.5784,15.68611 3.5784,19.59081 v 2.76358 h -44.28572 -44.28571 z"
     id="path62"
     inkscape:connector-curvature="0" />
  <path
     style="opacity:1;stroke-width:0.71428573;fill:#190000;fill-opacity:1"
     d="m 222.87311,386.34196 v -13.59294 l 138.03572,0.0192 138.03571,0.0192 -2.5,2.14196 c -8.89241,7.61888 -24.63706,16.44153 -36.08914,20.22287 -13.83155,4.567 -5.58173,4.27201 -126.94657,4.53923 l -110.53572,0.24338 z"
     id="path64"
     inkscape:connector-curvature="0" />
  <path
     style="opacity:1;stroke-width:0.71428573;fill:#190000;fill-opacity:1"
     d="m 222.87311,333.10784 v -13.21596 h 154.26786 154.26786 l -0.43976,2.32143 c -1.0612,5.60196 -4.03314,14.83256 -6.15185,19.10714 l -2.30125,4.64286 -149.82143,0.18024 -149.82143,0.18025 z"
     id="path66"
     inkscape:connector-curvature="0" />
  <path
     style="opacity:1;stroke-width:0.71428573;fill:#190000;fill-opacity:1"
     d="m 278.5874,279.89188 v -13.57143 h 41.78571 41.78572 v 13.57143 13.57143 H 320.37311 278.5874 Z"
     id="path68"
     inkscape:connector-curvature="0" />
  <path
     style="opacity:1;stroke-width:0.71428573;fill:#190000;fill-opacity:1"
     d="m 278.5874,120.24902 v -13.21428 h 41.78571 41.78572 v 13.21428 13.21429 H 320.37311 278.5874 Z"
     id="path70"
     inkscape:connector-curvature="0" />
  <path
     style="opacity:1;stroke-width:0.71428573;fill:#190000;fill-opacity:1"
     d="m 56.444539,120.24902 v -13.21428 h 41.785715 41.785716 v 13.21428 13.21429 H 98.230254 56.444539 Z"
     id="path72"
     inkscape:connector-curvature="0" />
  <path
     style="opacity:1;stroke-width:0.71428573;fill:#190000;fill-opacity:1"
     d="m 56.444539,173.46331 v -13.57143 h 41.785715 41.785716 v 13.57143 13.57143 H 98.230254 56.444539 Z"
     id="path74"
     inkscape:connector-curvature="0" />
  <path
     style="opacity:1;stroke-width:0.71428573;fill:#190000;fill-opacity:1"
     d="m 56.444539,226.67759 v -13.21428 h 41.785715 41.785716 v 13.21428 13.21429 H 98.230254 56.444539 Z"
     id="path76"
     inkscape:connector-curvature="0" />
  <path
     style="opacity:1;stroke-width:0.71428573;fill:#190000;fill-opacity:1"
     d="m 56.444539,279.89188 v -13.57143 h 41.785715 41.785716 v 13.57143 13.57143 H 98.230254 56.444539 Z"
     id="path78"
     inkscape:connector-curvature="0" />
  <path
     style="opacity:1;stroke-width:0.71428573;fill:#190000;fill-opacity:1"
     d="M 2.1588248,333.10616 V 319.89188 H 98.944539 195.73025 v 13.21428 13.21429 H 98.944539 2.1588248 Z"
     id="path80"
     inkscape:connector-curvature="0" />
  <path
     style="opacity:1;stroke-width:0.71428573;fill:#190000;fill-opacity:1"
     d="M 2.1588248,386.32045 V 372.74902 H 98.944539 195.73025 v 13.57143 13.57143 H 98.944539 2.1588248 Z"
     id="path82"
     inkscape:connector-curvature="0" />
  <path
     style="opacity:1;stroke-width:0.71428573;fill:#190000;fill-opacity:1"
     d="M 0.01596768,67.034735 V 53.463307 H 97.158825 194.30168 V 67.034735 80.606164 H 97.158825 0.01596768 Z"
     id="path84"
     inkscape:connector-curvature="0" />
  <path
     style="opacity:1;stroke-width:0.71428573;fill:#190000;fill-opacity:1"
     d="M 0.01596768,13.820449 V 0.60616367 H 97.158825 194.30168 V 13.820449 27.034735 H 97.158825 0.01596768 Z"
     id="path86"
     inkscape:connector-curvature="0" />
  <path
     style="opacity:1;stroke-width:0.06313454;fill:#190000;fill-opacity:1"
     d=""
     id="path88"
     inkscape:connector-curvature="0" />
</svg>
